# xmcd CD database file
#
# Track frame offsets:
#	150
#	20162
#	36559
#	52221
#	69856
#	87397
#	104834
#	119858
#	133210
#	145226
#	164186
#	178702
#	192460
#	209074
#
# Disc length: 3000 seconds
#
# Revision: 1
# Processed by: cddbd v1.5.1PL0 Copyright (c) Steve Scherf et al.
# Submitted via: CDex 1.51
#
DISCID=f50bb60e
DTITLE=Johnny Cash - American IV: The Man Comes Around
DYEAR=2002
DGENRE=Country
TTITLE0=The Man Comes Around
TTITLE1=Hurt
TTITLE2=Give Me Love To Rose
TTITLE3=Bridge Over Trouble Water
TTITLE4=I Hung My Head
TTITLE5=First Time Ever I Saw Your Face
TTITLE6=Personal Jesus
TTITLE7=In My Life
TTITLE8=Sam Hall
TTITLE9=Danny Boy
TTITLE10=Desperado
TTITLE11=I'm So Lonesome I Could Cry
TTITLE12=Tear Stained Letter
TTITLE13=Streets Of Laredo
EXTD=YEAR: 2002
EXTT0=
EXTT1=
EXTT2=
EXTT3=
EXTT4=
EXTT5=
EXTT6=
EXTT7=
EXTT8=
EXTT9=
EXTT10=
EXTT11=
EXTT12=
EXTT13=
PLAYORDER=
